<?xml version="1.0" encoding="UTF-8"?>
<svg id="Calque_1" data-name="Calque 1" xmlns="http://www.w3.org/2000/svg" viewBox="0 0 183.24 140">
  <defs>
    <style>
      .cls-1 {
        fill: #fff;
      }
    </style>
  </defs>
  <path class="cls-1" d="m0,0h46.4l1.73,22.72c.17,2.21.35,4.52.65,6.92,5.43,23.35,33.43,27.35,42.43,45.35,8,14-18,19-27,30-6,6-10,12-10,21h4c3-25,33-28,44-47,4-6-4-10-8-14-12-10-28-18-29.15-35.35.08-2.4.25-4.71.42-6.92,1.01-13.26,1.73-22.72,1.73-22.72h46.4v27.76c1.61,24.24,27.61,27.24,40.61,44.24,3,4,1,9-2,12-13,13-33,20-38.27,39.47-.31,3.37-.34,6.33-.34,8.78v7.76h-24v-9.73c-.39-24.27,25.61-32.27,40.61-47.27,2-2,3-5,2-7-11-19-41-21-41.32-45.59.21-4,.51-8,.74-11l.38-5h-4.8l-.77,9.3c-.24,2.91-.45,6.4-.18,10.35,4.96,17.94,23.96,24.94,36.96,37.94,3,4,1,8-1,11-14,13-34,19-43.1,37.4-.93,3.91-1.3,7.39-1.54,10.3l-.77,9.3h-39.6l-.8-9.3c-.25-2.91-.51-6.4-.22-10.32,3.02-20.38,28.02-24.38,37.02-41.38,1-2,0-4-1-6-16-16-43-25-45.01-49.29l-.8-9.3h-4.8l.37,5c.22,3,.53,7,1.09,11.01,6.14,20.58,30.14,25.58,42.14,43.58,1,2,0,5-1,7-13,15-34,20-39.65,38.8-.51,3.92-.56,7.48-.56,10.47v9.73H0v-7.76c0-2.45,0-5.41,0-8.77,1.2-22.48,26.2-27.48,39.2-41.48,3-4,3-9-1-13C24.21,55.99,4.21,47.99.16,27.77c-.16-4.1-.16-7.88-.16-11.24V0Z"/>
  <path class="cls-1" d="m103.75,0h79.49v22.8h-79.49V0Z"/>
  <path class="cls-1" d="m103.75,117.2h79.49v22.8h-79.49v-22.8Z"/>
</svg>